<?xml version="1.0" encoding="UTF-8"?>
<svg xmlns="http://www.w3.org/2000/svg" xmlns:xlink="http://www.w3.org/1999/xlink" viewBox="0 0 50 50" width="50px" height="50px">
<g id="surface126289330">
<path style=" stroke:none;fill-rule:nonzero;fill:rgb(56.078434%,56.078434%,56.078434%);fill-opacity:1;" d="M 16.664062 5 C 10.230469 5 5 10.238281 5 16.671875 L 5 33.335938 C 5 39.769531 10.238281 45 16.671875 45 L 33.335938 45 C 39.769531 45 45 39.761719 45 33.328125 L 45 16.664062 C 45 10.230469 39.761719 5 33.328125 5 Z M 36.667969 11.667969 C 37.585938 11.667969 38.332031 12.414062 38.332031 13.332031 C 38.332031 14.253906 37.585938 15 36.667969 15 C 35.746094 15 35 14.253906 35 13.332031 C 35 12.414062 35.746094 11.667969 36.667969 11.667969 Z M 25 15 C 30.515625 15 35 19.484375 35 25 C 35 30.515625 30.515625 35 25 35 C 19.484375 35 15 30.515625 15 25 C 15 19.484375 19.484375 15 25 15 Z M 25 18.332031 C 21.316406 18.332031 18.332031 21.316406 18.332031 25 C 18.332031 28.683594 21.316406 31.667969 25 31.667969 C 28.683594 31.667969 31.667969 28.683594 31.667969 25 C 31.667969 21.316406 28.683594 18.332031 25 18.332031 Z M 25 18.332031 "/>
</g>
</svg>
